<svg width="22" height="22" viewBox="0 0 22 22" xmlns="http://www.w3.org/2000/svg">
    <g fill="#FFFFFF" fill-rule="nonzero">
        <path d="M15.768 9.223 12.78 6.235a1.686 1.686 0 0 0-2.383 0l-9.223 9.223a3.799 3.799 0 1 0 5.368 5.371l9.223-9.223a1.686 1.686 0 0 0 .003-2.383zM5.221 19.505a1.93 1.93 0 1 1-2.73-2.73l5.213-5.21a.93.93 0 0 0 .106.132l2.493 2.492a.93.93 0 0 0 .131.106l-5.213 5.21zM11.73 13a.93.93 0 0 0-.106-.13l-2.493-2.493a.929.929 0 0 0-.13-.106l2.586-2.586 2.73 2.729-2.587 2.586zM18 6l-2.351 1.236.449-2.618-1.902-1.854 2.628-.382L18 0l1.176 2.382 2.628.382-1.902 1.854.45 2.618zM18 17.5l-1.763.927.336-1.963-1.426-1.39 1.971-.287L18 13l.882 1.787 1.971.286-1.426 1.39.336 1.964zM6 5.5l-1.763.927.336-1.963-1.426-1.391 1.971-.286L6 1l.882 1.787 1.971.286-1.426 1.39.336 1.964z"/>
    </g>
</svg>
