<?xml version="1.0" encoding="UTF-8" standalone="no"?>
<!DOCTYPE svg PUBLIC "-//W3C//DTD SVG 1.1//EN" "http://www.w3.org/Graphics/SVG/1.1/DTD/svg11.dtd">
<svg version="1.1" xmlns="http://www.w3.org/2000/svg" xmlns:xlink="http://www.w3.org/1999/xlink" preserveAspectRatio="xMidYMid meet" viewBox="0 0 36 36" width="36" height="36"><defs><path d="M20.21 1.89L21.27 2.17L22.28 2.55L23.24 3.02L24.15 3.58L24.99 4.23L25.77 4.95L26.49 5.75L27.12 6.61L27.67 7.53L28.13 8.51L28.5 9.54L28.78 10.61L28.94 11.72L29 12.87L28.88 14.48L28.53 16.17L27.98 17.91L27.28 19.66L26.45 21.41L25.52 23.14L24.53 24.82L23.5 26.42L22.47 27.92L21.48 29.3L20.55 30.53L19.72 31.6L19.02 32.47L18.47 33.12L18.12 33.53L18 33.67L17.88 33.53L17.53 33.12L16.98 32.47L16.28 31.6L15.45 30.53L14.52 29.3L13.53 27.92L12.5 26.42L11.47 24.82L10.48 23.14L9.55 21.41L8.72 19.66L8.02 17.91L7.47 16.17L7.12 14.48L7 12.87L7.06 11.72L7.22 10.61L7.5 9.54L7.87 8.51L8.33 7.53L8.88 6.61L9.51 5.75L10.23 4.95L11.01 4.23L11.85 3.58L12.76 3.02L13.72 2.55L14.73 2.17L15.79 1.89L16.88 1.72L18 1.67L19.12 1.72L20.21 1.89ZM15.45 14.53L14.09 14.99L12.89 15.64L12.05 16.45L11.71 17.43L12.47 18.4L13.36 19.24L14.38 19.93L15.5 20.44L16.72 20.76L18 20.87L19.28 20.76L20.5 20.44L21.62 19.93L22.64 19.24L23.53 18.4L24.29 17.43L23.95 16.45L23.11 15.64L21.91 14.99L20.55 14.53L19.19 14.24L18 14.15L16.81 14.24L15.45 14.53ZM15.78 5.81L15.11 6.82L14.86 8.07L15.11 9.32L15.78 10.33L16.78 11.02L18 11.27L19.22 11.02L20.22 10.33L20.89 9.32L21.14 8.07L20.89 6.82L20.22 5.81L19.22 5.12L18 4.87L16.78 5.12L15.78 5.81Z" id="a6lwNUyoGS"></path><path d="M18.1 3.86C20.35 3.86 22.16 5.71 22.16 7.99C22.16 10.27 20.35 12.12 18.1 12.12C15.86 12.12 14.05 10.27 14.05 7.99C14.05 5.71 15.86 3.86 18.1 3.86Z" id="c3o2xTQJvd"></path><path d="M18 12.9C22.23 12.9 25.65 14.92 25.65 17.42C25.65 19.92 22.23 21.95 18 21.95C13.78 21.95 10.35 19.92 10.35 17.42C10.35 14.92 13.78 12.9 18 12.9Z" id="aPZ6xSEn1"></path></defs><g><g><g><use xlink:href="#a6lwNUyoGS" opacity="1" fill="#f76457" fill-opacity="1"></use><g><use xlink:href="#a6lwNUyoGS" opacity="1" fill-opacity="0" stroke="#ffffff" stroke-width="1" stroke-opacity="1"></use></g></g><g><use xlink:href="#c3o2xTQJvd" opacity="1" fill="#ffffff" fill-opacity="1"></use><g><use xlink:href="#c3o2xTQJvd" opacity="1" fill-opacity="0" stroke="#000000" stroke-width="1" stroke-opacity="0"></use></g></g><g><use xlink:href="#aPZ6xSEn1" opacity="1" fill="#ffffff" fill-opacity="1"></use><g><use xlink:href="#aPZ6xSEn1" opacity="1" fill-opacity="0" stroke="#000000" stroke-width="1" stroke-opacity="0"></use></g></g></g></g></svg>